<svg width="193" height="26" viewBox="0 0 193 26" fill="none" xmlns="http://www.w3.org/2000/svg">
<path d="M192.104 19.5521H186.41V10.1401H182.718L182.692 10.9461C182.675 11.7781 182.64 12.5148 182.588 13.1561C182.554 13.7801 182.467 14.4561 182.328 15.1841C181.739 18.3561 179.338 19.9421 175.126 19.9421V15.8081C175.941 15.7041 176.496 15.4528 176.79 15.0541C177.085 14.6381 177.232 13.9968 177.232 13.1301V5.22614L192.104 5.25214V19.5521Z" fill="black"/>
<path d="M162.344 12.9221C162.483 13.6848 162.821 14.3088 163.358 14.7941C163.913 15.2621 164.693 15.4961 165.698 15.4961C166.426 15.4961 167.111 15.3575 167.752 15.0801C168.394 14.7855 168.905 14.3781 169.286 13.8581C170.448 14.4301 171.99 15.0455 173.914 15.7041C173.377 16.9175 172.398 17.8881 170.976 18.6161C169.572 19.3268 167.735 19.6821 165.464 19.6821C162.518 19.6821 160.334 19.0061 158.912 17.6541C157.508 16.2848 156.806 14.4908 156.806 12.2721C156.806 10.1055 157.508 8.34614 158.912 6.99414C160.316 5.64214 162.5 4.96614 165.464 4.96614C167.232 4.96614 168.766 5.26081 170.066 5.85014C171.366 6.43948 172.363 7.26281 173.056 8.32014C173.75 9.36014 174.096 10.5561 174.096 11.9081C174.096 12.3588 174.079 12.6968 174.044 12.9221H162.344ZM165.828 8.89214C164.962 8.89214 164.251 9.05681 163.696 9.38614C163.142 9.71548 162.752 10.1661 162.526 10.7381H168.662C168.454 10.1835 168.116 9.74148 167.648 9.41214C167.18 9.06548 166.574 8.89214 165.828 8.89214Z" fill="black"/>
<path d="M150.81 12.3761C153.774 12.3761 155.256 13.3208 155.256 15.2101C155.256 16.5621 154.736 17.6021 153.696 18.3301C152.673 19.0581 150.818 19.4221 148.132 19.4221H139.344C139.43 17.4461 139.474 15.0801 139.474 12.3241C139.474 9.56814 139.43 7.20214 139.344 5.22614H144.726V5.25214H148.106C149.735 5.25214 151.009 5.39081 151.928 5.66814C152.864 5.92814 153.522 6.30948 153.904 6.81214C154.285 7.31481 154.476 7.95614 154.476 8.73614C154.476 10.4868 153.254 11.7001 150.81 12.3761ZM144.726 8.81414V10.6341H146.702C147.499 10.6341 148.062 10.5648 148.392 10.4261C148.721 10.2701 148.886 10.0015 148.886 9.62014C148.886 9.32548 148.712 9.11748 148.366 8.99614C148.036 8.87481 147.482 8.81414 146.702 8.81414H144.726ZM146.702 15.8341C147.69 15.8341 148.366 15.7648 148.73 15.6261C149.094 15.4701 149.276 15.2015 149.276 14.8201C149.276 14.4908 149.085 14.2481 148.704 14.0921C148.322 13.9361 147.655 13.8581 146.702 13.8581H144.726V15.8341H146.702Z" fill="black"/>
<path d="M128.714 4.99214C131.66 4.99214 133.862 5.67681 135.318 7.04614C136.791 8.39814 137.528 10.2181 137.528 12.5061C137.528 14.7941 136.791 16.5621 135.318 17.8101C133.862 19.0581 131.66 19.6821 128.714 19.6821C126.928 19.6821 125.273 19.3788 123.748 18.7721C122.24 18.1481 121.165 17.0475 120.524 15.4701C122.361 14.6728 123.722 14.0315 124.606 13.5461C124.918 14.2048 125.386 14.6988 126.01 15.0281C126.651 15.3575 127.509 15.5221 128.584 15.5221C130.646 15.5221 131.981 14.9935 132.588 13.9361H125.802V10.6601H132.458C131.834 9.65481 130.629 9.15214 128.844 9.15214C128.029 9.15214 127.206 9.30814 126.374 9.62014C125.559 9.93214 124.97 10.4001 124.606 11.0241C123.011 10.2095 121.642 9.60281 120.498 9.20414C121.884 6.39614 124.623 4.99214 128.714 4.99214Z" fill="black"/>
<path d="M113.026 4.96614C114.153 4.96614 115.167 5.28681 116.068 5.92814C116.969 6.56948 117.671 7.44481 118.174 8.55414C118.677 9.64614 118.928 10.8508 118.928 12.1681C118.928 13.4681 118.677 14.6988 118.174 15.8601C117.671 17.0041 116.961 17.9315 116.042 18.6421C115.141 19.3355 114.109 19.6821 112.948 19.6821C111.596 19.6821 110.435 19.4048 109.464 18.8501C108.511 18.2781 107.8 17.4028 107.332 16.2241C107.332 17.2121 107.367 18.7981 107.436 20.9821C107.505 23.0968 107.54 24.5875 107.54 25.4541H101.664C101.768 22.2301 101.82 18.8588 101.82 15.3401C101.82 11.8215 101.768 8.45014 101.664 5.22614H106.656L107.41 8.47614C107.895 7.26281 108.623 6.37881 109.594 5.82414C110.565 5.25214 111.709 4.96614 113.026 4.96614ZM110.244 15.0021C111.024 15.0021 111.674 14.7595 112.194 14.2741C112.731 13.7715 113 13.1215 113 12.3241C113 11.4401 112.757 10.7208 112.272 10.1661C111.787 9.61148 111.128 9.33414 110.296 9.33414C109.343 9.33414 108.623 9.56814 108.138 10.0361C107.653 10.4868 107.41 11.2495 107.41 12.3241C107.41 12.9308 107.566 13.4421 107.878 13.8581C108.19 14.2568 108.563 14.5515 108.996 14.7421C109.429 14.9155 109.845 15.0021 110.244 15.0021Z" fill="black"/>
<path d="M99.5723 6.00614C96.8509 5.91948 94.2076 5.86748 91.6423 5.85014V19.4221H85.1423V5.85014C82.5596 5.86748 79.9249 5.91948 77.2383 6.00614V0.546143H99.5723V6.00614Z" fill="black"/>
<path d="M75.036 12.6361C75.816 13.2601 76.414 13.9621 76.83 14.7421C77.246 15.5221 77.636 16.4581 78 17.5501C78.364 18.5035 78.624 19.1275 78.78 19.4221H72.514C72.462 19.3008 72.358 18.9195 72.202 18.2781C72.0633 17.6368 71.9247 17.1255 71.786 16.7441C71.6473 16.3455 71.4393 15.9988 71.162 15.7041C70.7287 15.2361 70.2433 14.9328 69.706 14.7941C69.1687 14.6555 68.3713 14.5861 67.314 14.5861V19.4221H61.75C61.8367 17.4461 61.88 15.0801 61.88 12.3241C61.88 9.56812 61.8367 7.20212 61.75 5.22612H67.314V10.3221H67.418C69.4807 8.25946 70.98 6.56079 71.916 5.22612H78.78L72.696 11.2841C73.5973 11.6655 74.3773 12.1161 75.036 12.6361Z" fill="#00CEB5"/>
<path d="M59.6686 5.22612C59.5819 7.73946 59.5386 10.0101 59.5386 12.0381C59.5386 14.0315 59.5819 16.3021 59.6686 18.8501H54.3386L54.6246 9.85412L50.6466 18.8501H43.3926C43.4966 16.5621 43.5486 14.2915 43.5486 12.0381C43.5486 9.75012 43.4966 7.47946 43.3926 5.22612H48.5146L48.2546 14.4561L52.2326 5.22612H59.6686Z" fill="#00CEB5"/>
<path d="M24.5273 5.25212H41.3233V19.5521H35.6293V10.1401H30.2213V19.5521H24.5273V5.25212Z" fill="#00CEB5"/>
<path d="M10.998 0.00012207C14.9153 0.00012207 17.8013 0.901455 19.656 2.70412C21.5107 4.50679 22.438 6.95946 22.438 10.0621C22.438 13.1475 21.5107 15.5221 19.656 17.1861C17.8013 18.8501 14.9153 19.6821 10.998 19.6821C8.606 19.6821 6.396 19.2661 4.368 18.4341C2.34 17.6021 0.892667 16.1375 0.0259999 14.0401C2.24467 13.0868 4.06467 12.2288 5.486 11.4661C5.88467 12.5061 6.50867 13.2688 7.358 13.7541C8.20733 14.2221 9.35133 14.4561 10.79 14.4561C12.1593 14.4561 13.3033 14.2481 14.222 13.8321C15.158 13.3988 15.8253 12.7748 16.224 11.9601H7.072V7.59212H16.068C15.6693 6.84679 15.054 6.26612 14.222 5.85012C13.4073 5.41679 12.3933 5.20012 11.18 5.20012C10.0533 5.20012 8.944 5.43412 7.852 5.90212C6.77733 6.37012 5.98867 7.08946 5.486 8.06012C3.38867 6.98546 1.56 6.17946 0 5.64212C1.85467 1.88079 5.52067 0.00012207 10.998 0.00012207Z" fill="#00CEB5"/>
</svg>
